<svg xmlns="http://www.w3.org/2000/svg" width="1024" height="1024" viewBox="0 0 1024 1024"><g transform="matrix(1.24272 0 0 1.24272 -124.272 -124.272)"><g stroke="#88a6e0" stroke-linecap="round" fill="none"><g stroke-width="12"><line x1="610.58" y1="337.41" x2="646.99" y2="279.15"/><line x1="641.98" y1="361.42" x2="704.90" y2="293.47"/><line x1="668.76" y1="391.47" x2="747.76" y2="333.65"/><line x1="689.31" y1="426.09" x2="790.11" y2="378.65"/><line x1="702.88" y1="463.99" x2="792.36" y2="441.34"/><line x1="708.97" y1="503.78" x2="760.09" y2="500.92"/><line x1="707.36" y1="544.00" x2="776.31" y2="553.45"/><line x1="698.10" y1="583.18" x2="788.41" y2="613.92"/><line x1="681.53" y1="619.86" x2="749.82" y2="658.98"/><line x1="658.27" y1="652.72" x2="720.27" y2="706.23"/><line x1="629.17" y1="680.53" x2="683.28" y2="749.29"/><line x1="595.29" y1="702.28" x2="626.33" y2="762.67"/><line x1="557.89" y1="717.16" x2="575.77" y2="778.72"/></g><path d="M592.09 367.01A175.1 175.1 0 0 1 529.71 687.94" stroke-width="11"/></g><circle cx="592.09" cy="367.01" r="19" fill="#88a6e0"/></g></svg>
